<svg width="300" height="400" viewBox="0 0 300 400" fill="none" xmlns="http://www.w3.org/2000/svg">
<rect width="300" height="400" fill="#1B1F24"/>
<path d="M234.726 315.2C233.552 315.2 232.518 315.019 231.622 314.656C230.726 314.272 230.032 313.653 229.542 312.8C229.051 311.947 228.806 310.784 228.806 309.312V303.072H226.054V299.072H228.806L229.318 294.528H233.606V299.072H237.734V303.072H233.606V309.376C233.606 310.016 233.744 310.475 234.022 310.752C234.32 311.008 234.822 311.136 235.526 311.136H237.734V315.2H234.726Z" fill="url(#paint0_linear_529_88)"/>
<path d="M216.646 315.584C215.302 315.584 214.182 315.371 213.286 314.944C212.412 314.517 211.761 313.941 211.334 313.216C210.929 312.469 210.726 311.648 210.726 310.752C210.726 309.792 210.961 308.949 211.43 308.224C211.921 307.477 212.678 306.891 213.702 306.464C214.726 306.016 216.017 305.792 217.574 305.792H221.478C221.478 305.067 221.382 304.469 221.19 304C221.02 303.531 220.732 303.179 220.326 302.944C219.921 302.709 219.366 302.592 218.662 302.592C217.916 302.592 217.286 302.741 216.774 303.04C216.262 303.339 215.942 303.808 215.814 304.448H211.206C211.313 303.296 211.686 302.293 212.326 301.44C212.988 300.587 213.862 299.915 214.95 299.424C216.038 298.933 217.286 298.688 218.694 298.688C220.23 298.688 221.564 298.944 222.694 299.456C223.825 299.947 224.7 300.672 225.318 301.632C225.958 302.592 226.278 303.787 226.278 305.216V315.2H222.278L221.702 312.864C221.468 313.269 221.19 313.643 220.87 313.984C220.55 314.304 220.177 314.592 219.75 314.848C219.324 315.083 218.854 315.264 218.342 315.392C217.83 315.52 217.265 315.584 216.646 315.584ZM217.83 311.936C218.342 311.936 218.79 311.851 219.174 311.68C219.558 311.509 219.889 311.275 220.166 310.976C220.444 310.677 220.668 310.336 220.838 309.952C221.03 309.547 221.169 309.109 221.254 308.64V308.608H218.15C217.617 308.608 217.169 308.683 216.806 308.832C216.465 308.96 216.209 309.152 216.038 309.408C215.868 309.664 215.782 309.963 215.782 310.304C215.782 310.667 215.868 310.976 216.038 311.232C216.23 311.467 216.476 311.648 216.774 311.776C217.094 311.883 217.446 311.936 217.83 311.936Z" fill="url(#paint1_linear_529_88)"/>
<path d="M202.072 322.24V318.176H203.384C204.024 318.176 204.483 318.037 204.76 317.76C205.037 317.504 205.176 317.088 205.176 316.512V299.072H209.944V316.48C209.944 317.888 209.699 319.008 209.208 319.84C208.739 320.693 208.067 321.301 207.192 321.664C206.317 322.048 205.283 322.24 204.088 322.24H202.072ZM207.576 297.216C206.723 297.216 206.029 296.971 205.496 296.48C204.963 295.989 204.696 295.371 204.696 294.624C204.696 293.856 204.963 293.227 205.496 292.736C206.029 292.245 206.733 292 207.608 292C208.461 292 209.155 292.245 209.688 292.736C210.221 293.227 210.488 293.856 210.488 294.624C210.488 295.371 210.221 295.989 209.688 296.48C209.155 296.971 208.451 297.216 207.576 297.216Z" fill="url(#paint2_linear_529_88)"/>
<path d="M196.136 315.584C194.579 315.584 193.182 315.221 191.944 314.496C190.707 313.771 189.726 312.779 189 311.52C188.275 310.24 187.912 308.789 187.912 307.168C187.912 305.504 188.275 304.043 189 302.784C189.726 301.504 190.707 300.501 191.944 299.776C193.203 299.051 194.6 298.688 196.136 298.688C197.715 298.688 199.123 299.051 200.36 299.776C201.598 300.501 202.579 301.504 203.304 302.784C204.03 304.043 204.392 305.493 204.392 307.136C204.392 308.779 204.03 310.24 203.304 311.52C202.579 312.779 201.598 313.771 200.36 314.496C199.123 315.221 197.715 315.584 196.136 315.584ZM196.136 311.424C196.776 311.424 197.342 311.264 197.832 310.944C198.344 310.624 198.75 310.144 199.048 309.504C199.347 308.864 199.496 308.075 199.496 307.136C199.496 306.197 199.347 305.408 199.048 304.768C198.75 304.128 198.355 303.648 197.864 303.328C197.374 303.008 196.808 302.848 196.168 302.848C195.528 302.848 194.952 303.008 194.44 303.328C193.95 303.648 193.555 304.128 193.256 304.768C192.958 305.408 192.808 306.197 192.808 307.136C192.808 308.075 192.958 308.864 193.256 309.504C193.555 310.144 193.95 310.624 194.44 310.944C194.952 311.264 195.518 311.424 196.136 311.424Z" fill="url(#paint3_linear_529_88)"/>
<path d="M178.08 315.2V299.072H182.336L182.784 302.016C183.211 301.333 183.712 300.747 184.288 300.256C184.864 299.765 185.525 299.381 186.272 299.104C187.04 298.827 187.861 298.688 188.736 298.688V303.776H187.136C186.496 303.776 185.909 303.851 185.376 304C184.864 304.128 184.416 304.352 184.032 304.672C183.669 304.992 183.381 305.429 183.168 305.984C182.976 306.517 182.88 307.189 182.88 308V315.2H178.08Z" fill="url(#paint4_linear_529_88)"/>
<path d="M167.459 315.584C166.115 315.584 164.995 315.371 164.099 314.944C163.224 314.517 162.574 313.941 162.147 313.216C161.742 312.469 161.539 311.648 161.539 310.752C161.539 309.792 161.774 308.949 162.243 308.224C162.734 307.477 163.491 306.891 164.515 306.464C165.539 306.016 166.83 305.792 168.387 305.792H172.291C172.291 305.067 172.195 304.469 172.003 304C171.832 303.531 171.544 303.179 171.139 302.944C170.734 302.709 170.179 302.592 169.475 302.592C168.728 302.592 168.099 302.741 167.587 303.04C167.075 303.339 166.755 303.808 166.627 304.448H162.019C162.126 303.296 162.499 302.293 163.139 301.44C163.8 300.587 164.675 299.915 165.763 299.424C166.851 298.933 168.099 298.688 169.507 298.688C171.043 298.688 172.376 298.944 173.507 299.456C174.638 299.947 175.512 300.672 176.131 301.632C176.771 302.592 177.091 303.787 177.091 305.216V315.2H173.091L172.515 312.864C172.28 313.269 172.003 313.643 171.683 313.984C171.363 314.304 170.99 314.592 170.563 314.848C170.136 315.083 169.667 315.264 169.155 315.392C168.643 315.52 168.078 315.584 167.459 315.584ZM168.643 311.936C169.155 311.936 169.603 311.851 169.987 311.68C170.371 311.509 170.702 311.275 170.979 310.976C171.256 310.677 171.48 310.336 171.651 309.952C171.843 309.547 171.982 309.109 172.067 308.64V308.608H168.963C168.43 308.608 167.982 308.683 167.619 308.832C167.278 308.96 167.022 309.152 166.851 309.408C166.68 309.664 166.595 309.963 166.595 310.304C166.595 310.667 166.68 310.976 166.851 311.232C167.043 311.467 167.288 311.648 167.587 311.776C167.907 311.883 168.259 311.936 168.643 311.936Z" fill="url(#paint5_linear_529_88)"/>
<path d="M150.904 315.584C149.475 315.584 148.174 315.221 147 314.496C145.848 313.771 144.931 312.779 144.248 311.52C143.587 310.24 143.256 308.789 143.256 307.168C143.256 305.525 143.598 304.075 144.28 302.816C144.963 301.536 145.891 300.533 147.064 299.808C148.259 299.061 149.582 298.688 151.032 298.688C152.142 298.688 153.112 298.891 153.944 299.296C154.776 299.68 155.459 300.245 155.992 300.992V292.16H160.792V315.2H156.536L155.992 313.12C155.672 313.568 155.278 313.984 154.808 314.368C154.36 314.731 153.816 315.019 153.176 315.232C152.536 315.467 151.779 315.584 150.904 315.584ZM152.152 311.392C152.942 311.392 153.635 311.211 154.232 310.848C154.851 310.485 155.32 309.984 155.64 309.344C155.982 308.704 156.152 307.968 156.152 307.136C156.152 306.304 155.982 305.568 155.64 304.928C155.32 304.288 154.851 303.787 154.232 303.424C153.635 303.061 152.942 302.88 152.152 302.88C151.384 302.88 150.691 303.061 150.072 303.424C149.475 303.787 149.006 304.288 148.664 304.928C148.323 305.568 148.152 306.293 148.152 307.104C148.152 307.936 148.323 308.683 148.664 309.344C149.006 309.984 149.475 310.485 150.072 310.848C150.691 311.211 151.384 311.392 152.152 311.392Z" fill="url(#paint6_linear_529_88)"/>
<path d="M133.488 315.2V299.072H138.288V315.2H133.488ZM135.888 297.216C135.034 297.216 134.341 296.971 133.808 296.48C133.274 295.989 133.008 295.371 133.008 294.624C133.008 293.856 133.274 293.227 133.808 292.736C134.341 292.245 135.034 292 135.888 292C136.762 292 137.466 292.245 138 292.736C138.554 293.227 138.832 293.856 138.832 294.624C138.832 295.371 138.554 295.989 138 296.48C137.466 296.971 136.762 297.216 135.888 297.216Z" fill="url(#paint7_linear_529_88)"/>
<path d="M122.373 315.584C120.944 315.584 119.642 315.221 118.469 314.496C117.317 313.771 116.4 312.779 115.717 311.52C115.056 310.24 114.725 308.789 114.725 307.168C114.725 305.525 115.066 304.075 115.749 302.816C116.432 301.536 117.36 300.533 118.533 299.808C119.728 299.061 121.05 298.688 122.501 298.688C123.61 298.688 124.581 298.891 125.413 299.296C126.245 299.68 126.928 300.245 127.461 300.992V292.16H132.261V315.2H128.005L127.461 313.12C127.141 313.568 126.746 313.984 126.277 314.368C125.829 314.731 125.285 315.019 124.645 315.232C124.005 315.467 123.248 315.584 122.373 315.584ZM123.621 311.392C124.41 311.392 125.104 311.211 125.701 310.848C126.32 310.485 126.789 309.984 127.109 309.344C127.45 308.704 127.621 307.968 127.621 307.136C127.621 306.304 127.45 305.568 127.109 304.928C126.789 304.288 126.32 303.787 125.701 303.424C125.104 303.061 124.41 302.88 123.621 302.88C122.853 302.88 122.16 303.061 121.541 303.424C120.944 303.787 120.474 304.288 120.133 304.928C119.792 305.568 119.621 306.293 119.621 307.104C119.621 307.936 119.792 308.683 120.133 309.344C120.474 309.984 120.944 310.485 121.541 310.848C122.16 311.211 122.853 311.392 123.621 311.392Z" fill="url(#paint8_linear_529_88)"/>
<path d="M98.08 315.2V299.072H102.272L102.656 301.664C103.147 300.768 103.84 300.053 104.736 299.52C105.632 298.965 106.72 298.688 108 298.688C109.344 298.688 110.475 298.976 111.392 299.552C112.309 300.128 113.003 300.96 113.472 302.048C113.963 303.115 114.208 304.427 114.208 305.984V315.2H109.44V306.432C109.44 305.259 109.184 304.352 108.672 303.712C108.181 303.051 107.392 302.72 106.304 302.72C105.664 302.72 105.077 302.88 104.544 303.2C104.032 303.499 103.627 303.936 103.328 304.512C103.029 305.088 102.88 305.781 102.88 306.592V315.2H98.08Z" fill="url(#paint9_linear_529_88)"/>
<path d="M87.4589 315.584C86.1149 315.584 84.9949 315.371 84.0989 314.944C83.2243 314.517 82.5736 313.941 82.1469 313.216C81.7416 312.469 81.5389 311.648 81.5389 310.752C81.5389 309.792 81.7736 308.949 82.2429 308.224C82.7336 307.477 83.4909 306.891 84.5149 306.464C85.5389 306.016 86.8296 305.792 88.3869 305.792H92.2909C92.2909 305.067 92.1949 304.469 92.0029 304C91.8323 303.531 91.5443 303.179 91.1389 302.944C90.7336 302.709 90.1789 302.592 89.4749 302.592C88.7283 302.592 88.0989 302.741 87.5869 303.04C87.0749 303.339 86.7549 303.808 86.6269 304.448H82.0189C82.1256 303.296 82.4989 302.293 83.1389 301.44C83.8003 300.587 84.6749 299.915 85.7629 299.424C86.8509 298.933 88.0989 298.688 89.5069 298.688C91.0429 298.688 92.3763 298.944 93.5069 299.456C94.6376 299.947 95.5123 300.672 96.1309 301.632C96.7709 302.592 97.0909 303.787 97.0909 305.216V315.2H93.0909L92.5149 312.864C92.2803 313.269 92.0029 313.643 91.6829 313.984C91.3629 314.304 90.9896 314.592 90.5629 314.848C90.1363 315.083 89.6669 315.264 89.1549 315.392C88.6429 315.52 88.0776 315.584 87.4589 315.584ZM88.6429 311.936C89.1549 311.936 89.6029 311.851 89.9869 311.68C90.3709 311.509 90.7016 311.275 90.9789 310.976C91.2563 310.677 91.4803 310.336 91.6509 309.952C91.8429 309.547 91.9816 309.109 92.0669 308.64V308.608H88.9629C88.4296 308.608 87.9816 308.683 87.6189 308.832C87.2776 308.96 87.0216 309.152 86.8509 309.408C86.6803 309.664 86.5949 309.963 86.5949 310.304C86.5949 310.667 86.6803 310.976 86.8509 311.232C87.0429 311.467 87.2883 311.648 87.5869 311.776C87.9069 311.883 88.2589 311.936 88.6429 311.936Z" fill="url(#paint10_linear_529_88)"/>
<path d="M70.9042 315.584C69.4749 315.584 68.1736 315.221 67.0002 314.496C65.8482 313.771 64.9309 312.779 64.2482 311.52C63.5869 310.24 63.2562 308.789 63.2562 307.168C63.2562 305.525 63.5976 304.075 64.2802 302.816C64.9629 301.536 65.8909 300.533 67.0642 299.808C68.2589 299.061 69.5816 298.688 71.0322 298.688C72.1416 298.688 73.1122 298.891 73.9442 299.296C74.7762 299.68 75.4589 300.245 75.9922 300.992V292.16H80.7922V315.2H76.5362L75.9922 313.12C75.6722 313.568 75.2776 313.984 74.8082 314.368C74.3602 314.731 73.8162 315.019 73.1762 315.232C72.5362 315.467 71.7789 315.584 70.9042 315.584ZM72.1522 311.392C72.9416 311.392 73.6349 311.211 74.2322 310.848C74.8509 310.485 75.3202 309.984 75.6402 309.344C75.9816 308.704 76.1522 307.968 76.1522 307.136C76.1522 306.304 75.9816 305.568 75.6402 304.928C75.3202 304.288 74.8509 303.787 74.2322 303.424C73.6349 303.061 72.9416 302.88 72.1522 302.88C71.3842 302.88 70.6909 303.061 70.0722 303.424C69.4749 303.787 69.0056 304.288 68.6642 304.928C68.3229 305.568 68.1522 306.293 68.1522 307.104C68.1522 307.936 68.3229 308.683 68.6642 309.344C69.0056 309.984 69.4749 310.485 70.0722 310.848C70.6909 311.211 71.3842 311.392 72.1522 311.392Z" fill="url(#paint11_linear_529_88)"/>
<path d="M247.031 338.2V331.648H248.019L248.097 332.896C248.244 332.601 248.431 332.35 248.656 332.142C248.89 331.934 249.167 331.774 249.488 331.661C249.817 331.548 250.19 331.492 250.606 331.492V332.636H250.203C249.926 332.636 249.661 332.675 249.41 332.753C249.159 332.822 248.933 332.939 248.734 333.104C248.543 333.269 248.392 333.494 248.279 333.78C248.175 334.057 248.123 334.404 248.123 334.82V338.2H247.031Z" fill="white"/>
<path d="M242.515 338.356C241.9 338.356 241.354 338.213 240.877 337.927C240.409 337.641 240.041 337.242 239.772 336.731C239.504 336.211 239.369 335.609 239.369 334.924C239.369 334.231 239.499 333.628 239.759 333.117C240.028 332.606 240.401 332.207 240.877 331.921C241.363 331.635 241.917 331.492 242.541 331.492C243.183 331.492 243.724 331.635 244.166 331.921C244.617 332.207 244.959 332.584 245.193 333.052C245.436 333.511 245.557 334.018 245.557 334.573C245.557 334.66 245.557 334.751 245.557 334.846C245.557 334.941 245.553 335.05 245.544 335.171H240.188V334.326H244.491C244.465 333.728 244.266 333.26 243.893 332.922C243.529 332.584 243.07 332.415 242.515 332.415C242.143 332.415 241.796 332.502 241.475 332.675C241.163 332.84 240.912 333.087 240.721 333.416C240.531 333.737 240.435 334.14 240.435 334.625V334.989C240.435 335.526 240.531 335.977 240.721 336.341C240.921 336.705 241.176 336.978 241.488 337.16C241.809 337.342 242.151 337.433 242.515 337.433C242.975 337.433 243.352 337.333 243.646 337.134C243.95 336.926 244.166 336.649 244.296 336.302H245.375C245.271 336.692 245.089 337.043 244.829 337.355C244.569 337.667 244.244 337.914 243.854 338.096C243.473 338.269 243.027 338.356 242.515 338.356Z" fill="white"/>
<path d="M231.505 341.06V331.648H232.493L232.584 332.714C232.722 332.506 232.9 332.311 233.117 332.129C233.333 331.938 233.593 331.787 233.897 331.674C234.2 331.553 234.547 331.492 234.937 331.492C235.578 331.492 236.133 331.644 236.601 331.947C237.077 332.25 237.446 332.662 237.706 333.182C237.974 333.693 238.109 334.278 238.109 334.937C238.109 335.596 237.974 336.185 237.706 336.705C237.446 337.216 237.077 337.619 236.601 337.914C236.124 338.209 235.565 338.356 234.924 338.356C234.395 338.356 233.927 338.248 233.52 338.031C233.121 337.814 232.813 337.511 232.597 337.121V341.06H231.505ZM234.807 337.407C235.231 337.407 235.608 337.303 235.938 337.095C236.267 336.887 236.523 336.601 236.705 336.237C236.895 335.864 236.991 335.427 236.991 334.924C236.991 334.43 236.895 333.997 236.705 333.624C236.523 333.251 236.267 332.961 235.938 332.753C235.608 332.545 235.231 332.441 234.807 332.441C234.373 332.441 233.992 332.545 233.663 332.753C233.333 332.961 233.078 333.251 232.896 333.624C232.714 333.997 232.623 334.43 232.623 334.924C232.623 335.427 232.714 335.864 232.896 336.237C233.078 336.601 233.333 336.887 233.663 337.095C233.992 337.303 234.373 337.407 234.807 337.407Z" fill="white"/>
<path d="M226.724 338.356C226.117 338.356 225.571 338.217 225.086 337.94C224.6 337.654 224.219 337.255 223.942 336.744C223.664 336.224 223.526 335.622 223.526 334.937C223.526 334.235 223.664 333.628 223.942 333.117C224.228 332.597 224.613 332.198 225.099 331.921C225.593 331.635 226.143 331.492 226.75 331.492C227.374 331.492 227.924 331.635 228.401 331.921C228.886 332.198 229.267 332.597 229.545 333.117C229.831 333.628 229.974 334.231 229.974 334.924C229.974 335.617 229.831 336.224 229.545 336.744C229.259 337.255 228.873 337.654 228.388 337.94C227.902 338.217 227.348 338.356 226.724 338.356ZM226.737 337.42C227.109 337.42 227.456 337.329 227.777 337.147C228.097 336.956 228.357 336.675 228.557 336.302C228.756 335.929 228.856 335.47 228.856 334.924C228.856 334.369 228.756 333.91 228.557 333.546C228.366 333.173 228.11 332.896 227.79 332.714C227.478 332.523 227.131 332.428 226.75 332.428C226.386 332.428 226.039 332.523 225.71 332.714C225.389 332.896 225.129 333.173 224.93 333.546C224.739 333.91 224.644 334.369 224.644 334.924C224.644 335.47 224.739 335.929 224.93 336.302C225.129 336.675 225.385 336.956 225.697 337.147C226.017 337.329 226.364 337.42 226.737 337.42Z" fill="white"/>
<path d="M220.904 338.2V328.84H221.996V338.2H220.904Z" fill="white"/>
<path d="M216.388 338.356C215.773 338.356 215.227 338.213 214.75 337.927C214.282 337.641 213.914 337.242 213.645 336.731C213.377 336.211 213.242 335.609 213.242 334.924C213.242 334.231 213.372 333.628 213.632 333.117C213.901 332.606 214.274 332.207 214.75 331.921C215.236 331.635 215.79 331.492 216.414 331.492C217.056 331.492 217.597 331.635 218.039 331.921C218.49 332.207 218.832 332.584 219.066 333.052C219.309 333.511 219.43 334.018 219.43 334.573C219.43 334.66 219.43 334.751 219.43 334.846C219.43 334.941 219.426 335.05 219.417 335.171H214.061V334.326H218.364C218.338 333.728 218.139 333.26 217.766 332.922C217.402 332.584 216.943 332.415 216.388 332.415C216.016 332.415 215.669 332.502 215.348 332.675C215.036 332.84 214.785 333.087 214.594 333.416C214.404 333.737 214.308 334.14 214.308 334.625V334.989C214.308 335.526 214.404 335.977 214.594 336.341C214.794 336.705 215.049 336.978 215.361 337.16C215.682 337.342 216.024 337.433 216.388 337.433C216.848 337.433 217.225 337.333 217.519 337.134C217.823 336.926 218.039 336.649 218.169 336.302H219.248C219.144 336.692 218.962 337.043 218.702 337.355C218.442 337.667 218.117 337.914 217.727 338.096C217.346 338.269 216.9 338.356 216.388 338.356Z" fill="white"/>
<path d="M208.875 338.2L206.392 331.648H207.536L209.512 337.147L211.501 331.648H212.619L210.136 338.2H208.875Z" fill="white"/>
<path d="M202.728 338.356C202.113 338.356 201.567 338.213 201.09 337.927C200.622 337.641 200.254 337.242 199.985 336.731C199.717 336.211 199.582 335.609 199.582 334.924C199.582 334.231 199.712 333.628 199.972 333.117C200.241 332.606 200.614 332.207 201.09 331.921C201.576 331.635 202.13 331.492 202.754 331.492C203.396 331.492 203.937 331.635 204.379 331.921C204.83 332.207 205.172 332.584 205.406 333.052C205.649 333.511 205.77 334.018 205.77 334.573C205.77 334.66 205.77 334.751 205.77 334.846C205.77 334.941 205.766 335.05 205.757 335.171H200.401V334.326H204.704C204.678 333.728 204.479 333.26 204.106 332.922C203.742 332.584 203.283 332.415 202.728 332.415C202.356 332.415 202.009 332.502 201.688 332.675C201.376 332.84 201.125 333.087 200.934 333.416C200.744 333.737 200.648 334.14 200.648 334.625V334.989C200.648 335.526 200.744 335.977 200.934 336.341C201.134 336.705 201.389 336.978 201.701 337.16C202.022 337.342 202.364 337.433 202.728 337.433C203.188 337.433 203.565 337.333 203.859 337.134C204.163 336.926 204.379 336.649 204.509 336.302H205.588C205.484 336.692 205.302 337.043 205.042 337.355C204.782 337.667 204.457 337.914 204.067 338.096C203.686 338.269 203.24 338.356 202.728 338.356Z" fill="white"/>
<path d="M190.97 338.2V329.1H193.648C194.714 329.1 195.59 329.286 196.274 329.659C196.968 330.023 197.479 330.547 197.808 331.232C198.146 331.908 198.315 332.723 198.315 333.676C198.315 334.612 198.146 335.418 197.808 336.094C197.479 336.77 196.968 337.29 196.274 337.654C195.59 338.018 194.714 338.2 193.648 338.2H190.97ZM192.062 337.29H193.622C194.506 337.29 195.208 337.147 195.728 336.861C196.248 336.566 196.621 336.15 196.846 335.613C197.072 335.067 197.184 334.421 197.184 333.676C197.184 332.913 197.072 332.259 196.846 331.713C196.621 331.167 196.248 330.747 195.728 330.452C195.208 330.157 194.506 330.01 193.622 330.01H192.062V337.29Z" fill="white"/>
<path d="M182.188 338.356C181.555 338.356 181 338.209 180.524 337.914C180.047 337.611 179.679 337.199 179.419 336.679C179.159 336.159 179.029 335.57 179.029 334.911C179.029 334.252 179.159 333.667 179.419 333.156C179.679 332.636 180.047 332.229 180.524 331.934C181.009 331.639 181.568 331.492 182.201 331.492C182.738 331.492 183.206 331.6 183.605 331.817C184.012 332.034 184.324 332.337 184.541 332.727V328.84H185.633V338.2H184.645L184.554 337.121C184.415 337.338 184.237 337.541 184.021 337.732C183.804 337.914 183.544 338.066 183.241 338.187C182.937 338.3 182.586 338.356 182.188 338.356ZM182.318 337.407C182.751 337.407 183.132 337.303 183.462 337.095C183.791 336.887 184.047 336.601 184.229 336.237C184.411 335.864 184.502 335.427 184.502 334.924C184.502 334.43 184.411 333.997 184.229 333.624C184.047 333.251 183.791 332.961 183.462 332.753C183.132 332.545 182.751 332.441 182.318 332.441C181.893 332.441 181.516 332.545 181.187 332.753C180.857 332.961 180.602 333.251 180.42 333.624C180.238 333.997 180.147 334.43 180.147 334.924C180.147 335.427 180.238 335.864 180.42 336.237C180.602 336.601 180.857 336.887 181.187 337.095C181.516 337.303 181.893 337.407 182.318 337.407Z" fill="white"/>
<path d="M171.837 338.2V331.648H172.825L172.877 332.792C173.085 332.385 173.379 332.068 173.761 331.843C174.151 331.609 174.593 331.492 175.087 331.492C175.598 331.492 176.04 331.596 176.413 331.804C176.785 332.003 177.076 332.311 177.284 332.727C177.492 333.134 177.596 333.654 177.596 334.287V338.2H176.504V334.404C176.504 333.745 176.356 333.251 176.062 332.922C175.776 332.593 175.368 332.428 174.84 332.428C174.476 332.428 174.151 332.519 173.865 332.701C173.579 332.874 173.349 333.13 173.176 333.468C173.011 333.797 172.929 334.209 172.929 334.703V338.2H171.837Z" fill="white"/>
<path d="M167.321 338.356C166.706 338.356 166.16 338.213 165.683 337.927C165.215 337.641 164.847 337.242 164.578 336.731C164.309 336.211 164.175 335.609 164.175 334.924C164.175 334.231 164.305 333.628 164.565 333.117C164.834 332.606 165.206 332.207 165.683 331.921C166.168 331.635 166.723 331.492 167.347 331.492C167.988 331.492 168.53 331.635 168.972 331.921C169.423 332.207 169.765 332.584 169.999 333.052C170.242 333.511 170.363 334.018 170.363 334.573C170.363 334.66 170.363 334.751 170.363 334.846C170.363 334.941 170.359 335.05 170.35 335.171H164.994V334.326H169.297C169.271 333.728 169.072 333.26 168.699 332.922C168.335 332.584 167.876 332.415 167.321 332.415C166.948 332.415 166.602 332.502 166.281 332.675C165.969 332.84 165.718 333.087 165.527 333.416C165.336 333.737 165.241 334.14 165.241 334.625V334.989C165.241 335.526 165.336 335.977 165.527 336.341C165.726 336.705 165.982 336.978 166.294 337.16C166.615 337.342 166.957 337.433 167.321 337.433C167.78 337.433 168.157 337.333 168.452 337.134C168.755 336.926 168.972 336.649 169.102 336.302H170.181C170.077 336.692 169.895 337.043 169.635 337.355C169.375 337.667 169.05 337.914 168.66 338.096C168.279 338.269 167.832 338.356 167.321 338.356Z" fill="white"/>
<path d="M162.109 338.2C161.719 338.2 161.381 338.139 161.095 338.018C160.809 337.897 160.588 337.693 160.432 337.407C160.285 337.112 160.211 336.718 160.211 336.224V332.571H159.067V331.648H160.211L160.354 330.062H161.303V331.648H163.201V332.571H161.303V336.224C161.303 336.631 161.385 336.909 161.55 337.056C161.715 337.195 162.005 337.264 162.421 337.264H163.123V338.2H162.109Z" fill="white"/>
<path d="M152.07 338.2V331.648H153.058L153.11 332.792C153.318 332.385 153.613 332.068 153.994 331.843C154.384 331.609 154.826 331.492 155.32 331.492C155.832 331.492 156.274 331.596 156.646 331.804C157.019 332.003 157.309 332.311 157.517 332.727C157.725 333.134 157.829 333.654 157.829 334.287V338.2H156.737V334.404C156.737 333.745 156.59 333.251 156.295 332.922C156.009 332.593 155.602 332.428 155.073 332.428C154.709 332.428 154.384 332.519 154.098 332.701C153.812 332.874 153.583 333.13 153.409 333.468C153.245 333.797 153.162 334.209 153.162 334.703V338.2H152.07Z" fill="white"/>
<path d="M147.289 338.356C146.682 338.356 146.136 338.217 145.651 337.94C145.166 337.654 144.784 337.255 144.507 336.744C144.23 336.224 144.091 335.622 144.091 334.937C144.091 334.235 144.23 333.628 144.507 333.117C144.793 332.597 145.179 332.198 145.664 331.921C146.158 331.635 146.708 331.492 147.315 331.492C147.939 331.492 148.489 331.635 148.966 331.921C149.451 332.198 149.833 332.597 150.11 333.117C150.396 333.628 150.539 334.231 150.539 334.924C150.539 335.617 150.396 336.224 150.11 336.744C149.824 337.255 149.438 337.654 148.953 337.94C148.468 338.217 147.913 338.356 147.289 338.356ZM147.302 337.42C147.675 337.42 148.021 337.329 148.342 337.147C148.663 336.956 148.923 336.675 149.122 336.302C149.321 335.929 149.421 335.47 149.421 334.924C149.421 334.369 149.321 333.91 149.122 333.546C148.931 333.173 148.676 332.896 148.355 332.714C148.043 332.523 147.696 332.428 147.315 332.428C146.951 332.428 146.604 332.523 146.275 332.714C145.954 332.896 145.694 333.173 145.495 333.546C145.304 333.91 145.209 334.369 145.209 334.924C145.209 335.47 145.304 335.929 145.495 336.302C145.694 336.675 145.95 336.956 146.262 337.147C146.583 337.329 146.929 337.42 147.302 337.42Z" fill="white"/>
<path d="M139.794 338.2V331.648H140.782L140.86 332.896C141.007 332.601 141.193 332.35 141.419 332.142C141.653 331.934 141.93 331.774 142.251 331.661C142.58 331.548 142.953 331.492 143.369 331.492V332.636H142.966C142.688 332.636 142.424 332.675 142.173 332.753C141.921 332.822 141.696 332.939 141.497 333.104C141.306 333.269 141.154 333.494 141.042 333.78C140.938 334.057 140.886 334.404 140.886 334.82V338.2H139.794Z" fill="white"/>
<path d="M132.902 338.2V329.1H138.44V329.997H133.994V333.195H137.777V334.079H133.994V338.2H132.902Z" fill="white"/>
<path d="M122.376 334.82V333.897H127.524V334.82H122.376Z" fill="white"/>
<path d="M114.086 338.2V331.648H115.074L115.152 332.896C115.299 332.601 115.485 332.35 115.711 332.142C115.945 331.934 116.222 331.774 116.543 331.661C116.872 331.548 117.245 331.492 117.661 331.492V332.636H117.258C116.98 332.636 116.716 332.675 116.465 332.753C116.213 332.822 115.988 332.939 115.789 333.104C115.598 333.269 115.446 333.494 115.334 333.78C115.23 334.057 115.178 334.404 115.178 334.82V338.2H114.086Z" fill="white"/>
<path d="M109.57 338.356C108.955 338.356 108.409 338.213 107.932 337.927C107.464 337.641 107.096 337.242 106.827 336.731C106.559 336.211 106.424 335.609 106.424 334.924C106.424 334.231 106.554 333.628 106.814 333.117C107.083 332.606 107.456 332.207 107.932 331.921C108.418 331.635 108.972 331.492 109.596 331.492C110.238 331.492 110.779 331.635 111.221 331.921C111.672 332.207 112.014 332.584 112.248 333.052C112.491 333.511 112.612 334.018 112.612 334.573C112.612 334.66 112.612 334.751 112.612 334.846C112.612 334.941 112.608 335.05 112.599 335.171H107.243V334.326H111.546C111.52 333.728 111.321 333.26 110.948 332.922C110.584 332.584 110.125 332.415 109.57 332.415C109.198 332.415 108.851 332.502 108.53 332.675C108.218 332.84 107.967 333.087 107.776 333.416C107.586 333.737 107.49 334.14 107.49 334.625V334.989C107.49 335.526 107.586 335.977 107.776 336.341C107.976 336.705 108.231 336.978 108.543 337.16C108.864 337.342 109.206 337.433 109.57 337.433C110.03 337.433 110.407 337.333 110.701 337.134C111.005 336.926 111.221 336.649 111.351 336.302H112.43C112.326 336.692 112.144 337.043 111.884 337.355C111.624 337.667 111.299 337.914 110.909 338.096C110.528 338.269 110.082 338.356 109.57 338.356Z" fill="white"/>
<path d="M99.2323 338.2V331.648H100.22L100.272 332.792C100.48 332.385 100.775 332.068 101.156 331.843C101.546 331.609 101.988 331.492 102.482 331.492C102.994 331.492 103.436 331.596 103.808 331.804C104.181 332.003 104.471 332.311 104.679 332.727C104.887 333.134 104.991 333.654 104.991 334.287V338.2H103.899V334.404C103.899 333.745 103.752 333.251 103.457 332.922C103.171 332.593 102.764 332.428 102.235 332.428C101.871 332.428 101.546 332.519 101.26 332.701C100.974 332.874 100.745 333.13 100.571 333.468C100.407 333.797 100.324 334.209 100.324 334.703V338.2H99.2323Z" fill="white"/>
<path d="M94.5703 341.216C93.9809 341.216 93.4566 341.138 92.9973 340.982C92.5466 340.835 92.1956 340.605 91.9443 340.293C91.6929 339.981 91.5673 339.595 91.5673 339.136C91.5673 338.937 91.6063 338.724 91.6843 338.499C91.7709 338.274 91.9139 338.053 92.1133 337.836C92.3213 337.619 92.6116 337.424 92.9843 337.251L93.7383 337.693C93.2789 337.884 92.9799 338.1 92.8413 338.343C92.7026 338.594 92.6333 338.824 92.6333 339.032C92.6333 339.318 92.7156 339.556 92.8803 339.747C93.0449 339.938 93.2746 340.081 93.5693 340.176C93.8639 340.271 94.1976 340.319 94.5703 340.319C94.9429 340.319 95.2636 340.267 95.5323 340.163C95.8009 340.059 96.0089 339.912 96.1563 339.721C96.3036 339.53 96.3773 339.305 96.3773 339.045C96.3773 338.742 96.2646 338.486 96.0393 338.278C95.8139 338.079 95.3849 337.962 94.7523 337.927C94.2409 337.892 93.8119 337.845 93.4653 337.784C93.1186 337.723 92.8326 337.654 92.6073 337.576C92.3819 337.489 92.1913 337.394 92.0353 337.29C91.8879 337.186 91.7536 337.078 91.6323 336.965V336.666L92.8933 335.418L93.8423 335.756L92.5423 336.926L92.7113 336.471C92.8066 336.54 92.8976 336.605 92.9843 336.666C93.0709 336.727 93.1879 336.779 93.3353 336.822C93.4826 336.865 93.6863 336.904 93.9463 336.939C94.2149 336.974 94.5659 337.008 94.9993 337.043C95.5973 337.086 96.0739 337.19 96.4293 337.355C96.7933 337.52 97.0533 337.741 97.2093 338.018C97.3739 338.295 97.4563 338.625 97.4563 339.006C97.4563 339.379 97.3523 339.73 97.1443 340.059C96.9449 340.397 96.6329 340.674 96.2083 340.891C95.7836 341.108 95.2376 341.216 94.5703 341.216ZM94.5573 336.146C94.0113 336.146 93.5433 336.042 93.1533 335.834C92.7719 335.626 92.4816 335.349 92.2823 335.002C92.0829 334.647 91.9833 334.252 91.9833 333.819C91.9833 333.386 92.0829 332.996 92.2823 332.649C92.4903 332.302 92.7849 332.025 93.1663 331.817C93.5476 331.6 94.0113 331.492 94.5573 331.492C95.1033 331.492 95.5669 331.6 95.9483 331.817C96.3296 332.025 96.6199 332.302 96.8193 332.649C97.0186 332.996 97.1183 333.386 97.1183 333.819C97.1183 334.252 97.0186 334.647 96.8193 335.002C96.6199 335.349 96.3296 335.626 95.9483 335.834C95.5669 336.042 95.1033 336.146 94.5573 336.146ZM94.5573 335.249C95.0253 335.249 95.3936 335.128 95.6623 334.885C95.9309 334.642 96.0653 334.287 96.0653 333.819C96.0653 333.36 95.9309 333.009 95.6623 332.766C95.3936 332.523 95.0253 332.402 94.5573 332.402C94.0979 332.402 93.7253 332.523 93.4393 332.766C93.1619 333.009 93.0233 333.36 93.0233 333.819C93.0233 334.287 93.1619 334.642 93.4393 334.885C93.7166 335.128 94.0893 335.249 94.5573 335.249ZM95.6233 332.571L95.2983 331.648H97.9763V332.467L95.6233 332.571Z" fill="white"/>
<path d="M88.9642 338.2V331.648H90.0562V338.2H88.9642ZM89.5102 330.257C89.2936 330.257 89.1116 330.188 88.9642 330.049C88.8256 329.902 88.7562 329.72 88.7562 329.503C88.7562 329.286 88.8256 329.113 88.9642 328.983C89.1116 328.844 89.2936 328.775 89.5102 328.775C89.7182 328.775 89.8959 328.844 90.0432 328.983C90.1906 329.113 90.2642 329.286 90.2642 329.503C90.2642 329.72 90.1906 329.902 90.0432 330.049C89.8959 330.188 89.7182 330.257 89.5102 330.257Z" fill="white"/>
<path d="M84.8049 338.356C84.2589 338.356 83.7822 338.265 83.3749 338.083C82.9762 337.901 82.6556 337.65 82.4129 337.329C82.1789 337 82.0359 336.614 81.9839 336.172H83.1019C83.1452 336.397 83.2362 336.605 83.3749 336.796C83.5136 336.987 83.6999 337.143 83.9339 337.264C84.1766 337.377 84.4712 337.433 84.8179 337.433C85.1212 337.433 85.3726 337.39 85.5719 337.303C85.7712 337.208 85.9186 337.082 86.0139 336.926C86.1179 336.77 86.1699 336.601 86.1699 336.419C86.1699 336.15 86.1049 335.947 85.9749 335.808C85.8536 335.669 85.6716 335.561 85.4289 335.483C85.1862 335.396 84.8916 335.323 84.5449 335.262C84.2589 335.21 83.9772 335.141 83.6999 335.054C83.4226 334.967 83.1756 334.855 82.9589 334.716C82.7422 334.569 82.5689 334.391 82.4389 334.183C82.3176 333.975 82.2569 333.719 82.2569 333.416C82.2569 333.043 82.3522 332.714 82.5429 332.428C82.7336 332.133 83.0066 331.904 83.3619 331.739C83.7259 331.574 84.1462 331.492 84.6229 331.492C85.3249 331.492 85.8926 331.661 86.3259 331.999C86.7592 332.337 87.0149 332.827 87.0929 333.468H86.0139C85.9706 333.139 85.8276 332.883 85.5849 332.701C85.3509 332.51 85.0259 332.415 84.6099 332.415C84.2026 332.415 83.8906 332.497 83.6739 332.662C83.4659 332.827 83.3619 333.043 83.3619 333.312C83.3619 333.485 83.4182 333.641 83.5309 333.78C83.6522 333.91 83.8256 334.023 84.0509 334.118C84.2849 334.213 84.5709 334.291 84.9089 334.352C85.3422 334.43 85.7366 334.534 86.0919 334.664C86.4472 334.794 86.7332 334.989 86.9499 335.249C87.1752 335.5 87.2879 335.86 87.2879 336.328C87.2879 336.735 87.1839 337.091 86.9759 337.394C86.7766 337.697 86.4906 337.936 86.1179 338.109C85.7452 338.274 85.3076 338.356 84.8049 338.356Z" fill="white"/>
<path d="M77.8192 338.356C77.2039 338.356 76.6579 338.213 76.1812 337.927C75.7132 337.641 75.3449 337.242 75.0762 336.731C74.8076 336.211 74.6732 335.609 74.6732 334.924C74.6732 334.231 74.8032 333.628 75.0632 333.117C75.3319 332.606 75.7046 332.207 76.1812 331.921C76.6666 331.635 77.2212 331.492 77.8452 331.492C78.4866 331.492 79.0282 331.635 79.4702 331.921C79.9209 332.207 80.2632 332.584 80.4972 333.052C80.7399 333.511 80.8612 334.018 80.8612 334.573C80.8612 334.66 80.8612 334.751 80.8612 334.846C80.8612 334.941 80.8569 335.05 80.8482 335.171H75.4922V334.326H79.7952C79.7692 333.728 79.5699 333.26 79.1972 332.922C78.8332 332.584 78.3739 332.415 77.8192 332.415C77.4466 332.415 77.0999 332.502 76.7792 332.675C76.4672 332.84 76.2159 333.087 76.0252 333.416C75.8346 333.737 75.7392 334.14 75.7392 334.625V334.989C75.7392 335.526 75.8346 335.977 76.0252 336.341C76.2246 336.705 76.4802 336.978 76.7922 337.16C77.1129 337.342 77.4552 337.433 77.8192 337.433C78.2786 337.433 78.6556 337.333 78.9502 337.134C79.2536 336.926 79.4702 336.649 79.6002 336.302H80.6792C80.5752 336.692 80.3932 337.043 80.1332 337.355C79.8732 337.667 79.5482 337.914 79.1582 338.096C78.7769 338.269 78.3306 338.356 77.8192 338.356Z" fill="white"/>
<path d="M66.0609 338.2V329.1H68.7389C69.8049 329.1 70.6802 329.286 71.3649 329.659C72.0582 330.023 72.5696 330.547 72.8989 331.232C73.2369 331.908 73.4059 332.723 73.4059 333.676C73.4059 334.612 73.2369 335.418 72.8989 336.094C72.5696 336.77 72.0582 337.29 71.3649 337.654C70.6802 338.018 69.8049 338.2 68.7389 338.2H66.0609ZM67.1529 337.29H68.7129C69.5969 337.29 70.2989 337.147 70.8189 336.861C71.3389 336.566 71.7116 336.15 71.9369 335.613C72.1622 335.067 72.2749 334.421 72.2749 333.676C72.2749 332.913 72.1622 332.259 71.9369 331.713C71.7116 331.167 71.3389 330.747 70.8189 330.452C70.2989 330.157 69.5969 330.01 68.7129 330.01H67.1529V337.29Z" fill="white"/>
<path d="M59.5609 338.2V329.1H60.6529V338.2H59.5609Z" fill="white"/>
<path d="M54.3184 338.356C53.6944 338.356 53.1267 338.23 52.6154 337.979C52.1127 337.728 51.7097 337.346 51.4064 336.835C51.1031 336.315 50.9514 335.652 50.9514 334.846V329.1H52.0434V334.859C52.0434 335.448 52.1387 335.929 52.3294 336.302C52.5287 336.675 52.8017 336.948 53.1484 337.121C53.4951 337.294 53.8937 337.381 54.3444 337.381C54.8037 337.381 55.2024 337.294 55.5404 337.121C55.8784 336.948 56.1427 336.675 56.3334 336.302C56.5241 335.929 56.6194 335.448 56.6194 334.859V329.1H57.7114V334.846C57.7114 335.652 57.5597 336.315 57.2564 336.835C56.9531 337.346 56.5457 337.728 56.0344 337.979C55.5231 338.23 54.9511 338.356 54.3184 338.356Z" fill="white"/>
<g clip-path="url(#clip0_529_88)">
<rect x="58" y="58" width="184" height="184" rx="92" fill="#F8D429"/>
<circle cx="150" cy="150" r="92" fill="#F8D429"/>
</g>
<defs>
<linearGradient id="paint0_linear_529_88" x1="-13.5" y1="304.2" x2="283.5" y2="304.2" gradientUnits="userSpaceOnUse">
<stop offset="0.35" stop-color="#F8D429"/>
<stop offset="1" stop-color="#927D18" stop-opacity="0"/>
</linearGradient>
<linearGradient id="paint1_linear_529_88" x1="-13.5" y1="304.2" x2="283.5" y2="304.2" gradientUnits="userSpaceOnUse">
<stop offset="0.35" stop-color="#F8D429"/>
<stop offset="1" stop-color="#927D18" stop-opacity="0"/>
</linearGradient>
<linearGradient id="paint2_linear_529_88" x1="-13.5" y1="304.2" x2="283.5" y2="304.2" gradientUnits="userSpaceOnUse">
<stop offset="0.35" stop-color="#F8D429"/>
<stop offset="1" stop-color="#927D18" stop-opacity="0"/>
</linearGradient>
<linearGradient id="paint3_linear_529_88" x1="-13.5" y1="304.2" x2="283.5" y2="304.2" gradientUnits="userSpaceOnUse">
<stop offset="0.35" stop-color="#F8D429"/>
<stop offset="1" stop-color="#927D18" stop-opacity="0"/>
</linearGradient>
<linearGradient id="paint4_linear_529_88" x1="-13.5" y1="304.2" x2="283.5" y2="304.2" gradientUnits="userSpaceOnUse">
<stop offset="0.35" stop-color="#F8D429"/>
<stop offset="1" stop-color="#927D18" stop-opacity="0"/>
</linearGradient>
<linearGradient id="paint5_linear_529_88" x1="-13.5001" y1="304.2" x2="283.5" y2="304.2" gradientUnits="userSpaceOnUse">
<stop offset="0.35" stop-color="#F8D429"/>
<stop offset="1" stop-color="#927D18" stop-opacity="0"/>
</linearGradient>
<linearGradient id="paint6_linear_529_88" x1="-13.5" y1="304.2" x2="283.5" y2="304.2" gradientUnits="userSpaceOnUse">
<stop offset="0.35" stop-color="#F8D429"/>
<stop offset="1" stop-color="#927D18" stop-opacity="0"/>
</linearGradient>
<linearGradient id="paint7_linear_529_88" x1="-13.5001" y1="304.2" x2="283.5" y2="304.2" gradientUnits="userSpaceOnUse">
<stop offset="0.35" stop-color="#F8D429"/>
<stop offset="1" stop-color="#927D18" stop-opacity="0"/>
</linearGradient>
<linearGradient id="paint8_linear_529_88" x1="-13.5" y1="304.2" x2="283.5" y2="304.2" gradientUnits="userSpaceOnUse">
<stop offset="0.35" stop-color="#F8D429"/>
<stop offset="1" stop-color="#927D18" stop-opacity="0"/>
</linearGradient>
<linearGradient id="paint9_linear_529_88" x1="-13.5" y1="304.2" x2="283.5" y2="304.2" gradientUnits="userSpaceOnUse">
<stop offset="0.35" stop-color="#F8D429"/>
<stop offset="1" stop-color="#927D18" stop-opacity="0"/>
</linearGradient>
<linearGradient id="paint10_linear_529_88" x1="-13.5001" y1="304.2" x2="283.5" y2="304.2" gradientUnits="userSpaceOnUse">
<stop offset="0.35" stop-color="#F8D429"/>
<stop offset="1" stop-color="#927D18" stop-opacity="0"/>
</linearGradient>
<linearGradient id="paint11_linear_529_88" x1="-13.5" y1="304.2" x2="283.5" y2="304.2" gradientUnits="userSpaceOnUse">
<stop offset="0.35" stop-color="#F8D429"/>
<stop offset="1" stop-color="#927D18" stop-opacity="0"/>
</linearGradient>
<clipPath id="clip0_529_88">
<rect x="58" y="58" width="184" height="184" rx="92" fill="white"/>
</clipPath>
</defs>
</svg>
